<?xml version="1.0" encoding="UTF-8"?>
<svg xmlns="http://www.w3.org/2000/svg" width="459" height="63" viewBox="0 0 459 63" fill="none">
  <path d="M34.4431 12.4611H22.4025L15.4552 45.1527H5.2113L12.1586 12.4611H0L1.9753 3.16504H36.4184L34.4431 12.4611Z" fill="#226730"></path>
  <path d="M58.939 32.9772C56.8424 42.783 50.4648 45.9323 43.3355 45.9323C36.2062 45.9323 30.7859 42.2125 30.7859 34.9856C30.7859 33.7873 30.9342 32.5553 31.2342 31.1781L34.4972 15.7319H43.9625L40.4568 32.1367C40.3354 32.7072 40.3085 33.1865 40.3085 33.6658C40.3085 36.0658 41.8051 37.1763 44.0231 37.1763C47.0198 37.1763 49.0861 35.0464 49.8648 31.3266L53.1277 15.7319H62.593L58.939 32.9772Z" fill="#226730"></path>
  <path d="M88.0191 18.25L91.4944 1.96332H100.929L91.7641 45.1526H82.6291L83.1078 42.9619C81.2808 44.7307 78.9751 45.9324 75.7695 45.9324C68.7615 45.9324 63.6682 39.7856 63.6682 32.2245C63.6682 24.6634 68.9705 14.9184 79.7504 14.9184C83.2258 14.9184 86.1314 16.029 88.0157 18.2467L88.0191 18.25ZM85.7741 30.6077C86.3134 26.1689 83.4381 23.6778 80.2325 23.6778C76.3695 23.6778 73.4335 27.1275 73.4335 31.2659C73.4335 35.4042 76.2481 37.173 79.0628 37.173C82.5381 37.173 85.3224 34.4152 85.7707 30.6043L85.7741 30.6077Z" fill="#226730"></path>
  <path d="M131.263 29.109C131.263 38.2869 124.104 45.9358 114.281 45.9358C105.986 45.9358 99.3956 40.4472 99.3956 31.7486C99.3956 22.601 106.555 14.9218 116.378 14.9218C124.673 14.9218 131.263 20.4407 131.263 29.109ZM109.009 31.1781C109.009 34.7157 111.376 37.2068 114.79 37.2068C118.623 37.2068 121.65 33.9089 121.65 29.6794C121.65 26.1419 119.223 23.6812 115.778 23.6812C111.976 23.6812 109.009 26.9487 109.009 31.1781Z" fill="#226730"></path>
  <path d="M43.2713 8.20118L42.4859 11.9243H39.7993L42.1387 0.903381H46.3522C48.7354 0.903381 50.0466 2.34471 50.0466 4.09996C50.0466 6.54044 48.3241 8.20118 45.3848 8.20118H43.2713ZM44.3162 3.28985L43.7735 5.85522H45.5264C46.6657 5.85522 47.3567 5.30501 47.3567 4.40038C47.3567 3.73879 46.8679 3.28985 45.9983 3.28985H44.3162Z" fill="#E45737"></path>
  <path d="M58.4265 7.71175C58.4265 10.1185 56.5489 12.1269 53.9703 12.1269C51.7927 12.1269 50.0635 10.6855 50.0635 8.40372C50.0635 6.00375 51.941 3.98859 54.5197 3.98859C56.6973 3.98859 58.4265 5.43667 58.4265 7.71175ZM52.5882 8.2552C52.5882 9.18346 53.2085 9.8383 54.1051 9.8383C55.1096 9.8383 55.9051 8.97418 55.9051 7.86364C55.9051 6.93538 55.268 6.29067 54.3647 6.29067C53.3669 6.29067 52.5882 7.14804 52.5882 8.25857V8.2552Z" fill="#E45737"></path>
  <path d="M61.2647 11.921H58.7972L60.4388 4.20124H62.7647L62.5759 5.02824C63.1254 4.28225 63.8164 3.98859 64.6355 3.98859C64.9726 3.98859 65.3198 4.06622 65.6636 4.18436L64.9726 6.56746C64.6423 6.43244 64.2108 6.3548 63.8265 6.3548C63.0243 6.3548 62.3265 6.84425 62.104 7.8974L61.2647 11.9176V11.921Z" fill="#E45737"></path>
  <path d="M72.3345 6.38184H69.803L69.3075 8.70417C69.1423 9.50079 69.4659 9.82821 70.0794 9.82821C70.5109 9.82821 70.9592 9.63918 71.3671 9.4029L72.139 11.3708C71.33 11.8906 70.4401 12.1269 69.5131 12.1269C67.194 12.1269 66.3917 10.743 66.8164 8.76493L67.3187 6.38184H65.9198L66.385 4.20128H67.7839L68.2625 1.94983H70.7468L70.2682 4.20128H72.7997L72.3345 6.38184Z" fill="#E45737"></path>
  <path d="M79.2886 4.86284L79.4302 4.20124H81.8807L80.2459 11.921H77.8728L77.9975 11.3471C77.5189 11.813 76.9054 12.1269 76.0728 12.1269C74.2323 12.1269 72.8907 10.5134 72.8907 8.52861C72.8907 6.54383 74.2896 3.98859 77.1178 3.98859C78.0313 3.98859 78.7931 4.27888 79.2886 4.86284ZM78.6919 8.10668C78.8335 6.94214 78.0784 6.28729 77.2391 6.28729C76.2245 6.28729 75.4559 7.19192 75.4559 8.27883C75.4559 9.36573 76.1942 9.82817 76.9324 9.82817C77.8459 9.82817 78.574 9.10582 78.6919 8.1033V8.10668Z" fill="#E45737"></path>
  <path d="M84.365 11.921H81.8807L84.2841 0.589478H86.7684L84.365 11.921Z" fill="#E45737"></path>
  <path d="M144.627 41.8824L141.774 55.3856H132.958L141.16 16.7894H149.649L149.199 18.7985C150.905 17.1721 153.048 16.0377 156.037 16.0377C162.533 16.0377 167.31 21.7643 167.31 28.8029C167.31 35.8415 162.37 44.9302 152.325 44.9302C149.09 44.9302 146.374 43.9188 144.627 41.8824ZM146.715 30.3199C146.21 34.4884 148.926 36.7982 151.874 36.7982C155.505 36.7982 158.234 33.5864 158.234 29.7323C158.234 25.8781 155.614 24.2244 152.993 24.2244C149.731 24.2244 147.165 26.7938 146.715 30.3199Z" fill="#E45737"></path>
  <path d="M192.423 19.1264L192.928 16.7756H201.636L195.835 44.192H187.401L187.851 42.1556C186.145 43.8093 183.975 44.9164 181.013 44.9164C174.476 44.9164 169.712 39.1898 169.712 32.1512C169.712 25.1126 174.68 16.0239 184.726 16.0239C187.96 16.0239 190.676 17.0626 192.423 19.1264ZM190.308 30.6341C190.813 26.493 188.138 24.1832 185.149 24.1832C181.546 24.1832 178.816 27.395 178.816 31.2492C178.816 35.1033 181.436 36.7571 184.057 36.7571C187.291 36.7571 189.885 34.1876 190.308 30.6341Z" fill="#E45737"></path>
  <path d="M210.384 44.192H201.622L207.45 16.7756H215.707L215.038 19.7141C216.99 17.0626 219.447 16.0239 222.354 16.0239C223.555 16.0239 224.783 16.3109 226.012 16.7209L223.555 25.1946C222.381 24.7162 220.852 24.4429 219.474 24.4429C216.621 24.4429 214.137 26.1786 213.36 29.9235L210.371 44.2057L210.384 44.192Z" fill="#E45737"></path>
  <path d="M247.781 19.1264L248.286 16.7756H256.993L251.193 44.192H242.772L243.222 42.1556C241.516 43.8093 239.346 44.9164 236.384 44.9164C229.861 44.9164 225.084 39.1898 225.084 32.1512C225.084 25.1126 230.052 16.0239 240.097 16.0239C243.331 16.0239 246.047 17.0626 247.794 19.1264H247.781ZM245.665 30.6341C246.17 26.493 243.495 24.1832 240.506 24.1832C236.903 24.1832 234.173 27.395 234.173 31.2492C234.173 35.1033 236.794 36.7571 239.414 36.7571C242.649 36.7571 245.242 34.1876 245.665 30.6341Z" fill="#E45737"></path>
  <path d="M309.447 45.1428H299.26L305.3 16.7604L292.376 41.1745H281.707L278.728 16.8812L272.746 45.1492H262.528L271.482 3.00476H285.492L288.921 30.0326L303.56 3.00476H318.408L309.447 45.1492V45.1428Z" fill="#226730"></path>
  <path d="M349.628 29.0405C349.628 38.2491 342.445 45.925 332.583 45.925C324.257 45.925 317.646 40.4176 317.646 31.6861C317.646 22.5029 324.828 14.8016 334.691 14.8016C343.017 14.8016 349.628 20.3407 349.628 29.0405ZM327.293 31.1201C327.293 34.6687 329.668 37.1679 333.097 37.1679C336.946 37.1679 339.981 33.8546 339.981 29.6128C339.981 26.0642 337.549 23.5904 334.088 23.5904C330.271 23.5904 327.293 26.8719 327.293 31.1137V31.1201ZM330.208 11.9462L337.574 1.95538H348.574L339.194 11.9462H330.208Z" fill="#226730"></path>
  <path d="M368.052 45.1428H357.319L351.756 15.6157H361.466L364.324 35.2093L374.695 15.6157H384.913L368.052 45.1428Z" fill="#226730"></path>
  <path d="M409.528 41.2317C406.702 44.2715 402.523 45.925 397.055 45.925C388.247 45.925 383.045 40.4749 383.045 32.9834C383.045 25.4919 387.828 14.8016 400.18 14.8016C407.604 14.8016 412.957 19.7047 412.957 26.9927C412.957 28.9515 412.418 31.7496 411.757 33.2823H392.248C392.489 36.3857 394.559 38.0074 397.69 38.0074C399.888 38.0074 402.136 37.4668 404.092 35.6289L409.534 41.2253L409.528 41.2317ZM393.416 27.3234H404.028V27.1708C404.028 24.2518 402.314 22.8082 399.608 22.8082C396.452 22.8082 394.496 24.9132 393.416 27.3234Z" fill="#226730"></path>
  <path d="M423.386 45.1428H413.885L420.166 15.6157H429.666L423.386 45.1428ZM432.435 6.52158C432.435 9.68226 429.971 12.1179 426.783 12.1179C423.595 12.1179 421.163 9.68226 421.163 6.52158C421.163 3.36091 423.627 0.861633 426.783 0.861633C429.94 0.861633 432.435 3.32912 432.435 6.52158Z" fill="#226730"></path>
  <path d="M455.183 25.0977C451.906 23.1389 447.759 22.4458 445.956 22.4458C443.523 22.4458 442.412 23.0499 442.291 24.0738C442.113 25.581 443.403 25.8226 446.318 26.4204L448.153 26.8147C454.618 28.1375 456.961 31.5398 456.422 36.1187C455.641 42.5926 450.769 45.8996 442.533 45.8996C437.452 45.8996 432.009 44.3924 428.885 41.9885L432.911 35.0948C435.769 36.9581 439.554 38.2873 442.888 38.2873C445.714 38.2873 446.794 37.6577 446.915 36.4494C447.067 35.1838 445.924 34.7005 443.098 34.16L441.237 33.8293C434.385 32.6273 432.041 29.0405 432.638 24.1692C433.419 17.9687 438.322 14.8398 445.867 14.8398C450.674 14.8398 454.885 15.9527 459 18.1531L455.183 25.104V25.0977Z" fill="#226730"></path>
  <path fill-rule="evenodd" clip-rule="evenodd" d="M450.975 52.416L449.889 60.287H452.239C453.474 60.287 454.436 59.8988 455.13 59.127C455.825 58.3504 456.174 57.3582 456.174 56.1598C456.174 55.0572 455.815 54.156 455.097 53.461C454.379 52.7659 453.412 52.416 452.186 52.416H450.975ZM448.745 50.4266H452.67C454.642 50.4266 456.155 50.9635 457.198 52.0373C458.242 53.111 458.769 54.4964 458.769 56.1885C458.769 57.8807 458.232 59.381 457.165 60.5363C456.093 61.6868 454.771 62.262 453.192 62.262H447.093L448.745 50.4266Z" fill="#226730"></path>
  <path fill-rule="evenodd" clip-rule="evenodd" d="M426.907 50.7046L426.619 52.8905L425.025 49.7076L426.907 50.7046Z" fill="#E45737"></path>
  <path fill-rule="evenodd" clip-rule="evenodd" d="M437.931 61.8401L440.171 57.6505L439.831 50.4218H437.16L433.173 57.871L431.268 50.4218H428.52L425.743 58.9352L426.15 56.0303H421.478L421.224 57.9046H423.388L423.091 60.0041C422.512 60.1479 421.923 60.2246 421.325 60.2246C420.181 60.2246 419.267 59.937 418.587 59.3666C417.907 58.7914 417.567 58.0004 417.567 56.9794C417.567 55.6468 418.118 54.5586 419.209 53.715C420.305 52.8761 421.727 52.4542 423.47 52.4542C424.504 52.4542 425.547 52.5933 426.61 52.8857L424.949 50.3355C424.48 50.2875 423.987 50.2684 423.47 50.2684C420.789 50.2684 418.702 50.9347 417.208 52.2673C415.71 53.5999 414.963 55.201 414.963 57.0705C414.963 58.6428 415.542 59.9226 416.696 60.9197C417.85 61.912 419.496 62.4105 421.631 62.4105C422.833 62.4105 423.843 62.3386 424.676 62.1948L424.657 62.2571H427.179L429.86 54.0313L431.971 62.2571H433.168L437.548 54.2614L437.926 61.9935V61.8401H437.931Z" fill="#226730"></path>
  <path fill-rule="evenodd" clip-rule="evenodd" d="M446.409 50.2684H443.747L437.95 62.2571H440.717L444.709 52.7515L445.911 62.2571H446.835L447.715 57.8135L446.409 50.2684Z" fill="#E45737"></path>
</svg>
